# xmcd
#
# Track frame offsets: 
#        150
#        19275
#        51690
#        72690
#        106575
#        126807
#        149495
#        167925
#        184650
#
# Disc length: 2833 seconds
#
# Revision: 0
# Processed by: cddbd v1.5.2PL0 Copyright (c) Steve Scherf et al.
# Submitted via: ExactAudioCopy v0.99pb5
#
DISCID=8b0b0f09
DTITLE=A C Reed - Live
DYEAR=1900
DGENRE=Blues
TTITLE0=Ain't Doing To Bad
TTITLE1=Introduction
TTITLE2=She's Fine
TTITLE3=Come On Home
TTITLE4=Broke Music
TTITLE5=These Blues Are Killing Me
TTITLE6=Take These Blues And Shovem
TTITLE7=Things I Want You To Do 
TTITLE8=Boogie
EXTD=
EXTT0=
EXTT1=
EXTT2=
EXTT3=
EXTT4=
EXTT5=
EXTT6=
EXTT7=
EXTT8=
PLAYORDER=
